<svg xmlns="http://www.w3.org/2000/svg" width="600" height="400" viewBox="0 0 600 400"><rect width="100%" height="100%" fill="#475569"/><path fill="#fff" d="m168.94 179.155-3.51 4.86q-.59.76-1.16 1.19-.57.43-1.65.43-1.02 0-1.99-.62-.98-.62-2.33-1.4-1.35-.78-3.21-1.4-1.86-.63-4.62-.63-3.51 0-6.15 1.27-2.65 1.27-4.4 3.65-1.76 2.37-2.62 5.75-.87 3.37-.87 7.64 0 4.43.95 7.88.94 3.46 2.73 5.81 1.78 2.35 4.32 3.56 2.53 1.22 5.72 1.22t5.16-.79q1.97-.78 3.32-1.72 1.35-.95 2.35-1.73t2.24-.78q1.62 0 2.43 1.24l3.83 4.86q-2.21 2.59-4.8 4.34-2.6 1.76-5.38 2.81-2.78 1.06-5.72 1.49-2.94.43-5.86.43-5.13 0-9.67-1.92-4.53-1.91-7.93-5.59-3.41-3.67-5.38-8.99-1.97-5.32-1.97-12.12 0-6.1 1.76-11.31 1.75-5.21 5.15-9.02 3.41-3.81 8.43-5.97 5.02-2.16 11.55-2.16 6.21 0 10.89 2 4.67 2 8.39 5.72Zm33.37-7.72q6.16 0 11.21 2 5.05 2 8.64 5.67 3.59 3.67 5.54 8.96 1.94 5.3 1.94 11.83 0 6.59-1.94 11.88-1.95 5.29-5.54 9.02-3.59 3.72-8.64 5.72-5.05 2-11.21 2-6.2 0-11.28-2-5.08-2-8.67-5.72-3.59-3.73-5.56-9.02-1.97-5.29-1.97-11.88 0-6.53 1.97-11.83 1.97-5.29 5.56-8.96 3.59-3.67 8.67-5.67t11.28-2Zm0 46.82q6.92 0 10.24-4.64 3.32-4.65 3.32-13.61 0-8.97-3.32-13.66-3.32-4.7-10.24-4.7-7.02 0-10.39 4.72-3.38 4.73-3.38 13.64t3.38 13.58q3.37 4.67 10.39 4.67Zm74.36-39.96-3.02 4.81q-.54.86-1.14 1.21-.59.35-1.51.35-.97 0-2.08-.54-1.1-.54-2.56-1.21-1.46-.68-3.32-1.22-1.87-.54-4.4-.54-3.95 0-6.19 1.68-2.24 1.67-2.24 4.37 0 1.78 1.16 3 1.16 1.21 3.08 2.13 1.92.92 4.35 1.65 2.43.73 4.94 1.59 2.51.86 4.94 1.97 2.43 1.11 4.35 2.81 1.91 1.7 3.08 4.08 1.16 2.37 1.16 5.72 0 4-1.43 7.37-1.44 3.38-4.24 5.83-2.81 2.46-6.94 3.84-4.13 1.37-9.53 1.37-2.87 0-5.59-.51-2.73-.51-5.24-1.43-2.51-.92-4.64-2.16-2.14-1.24-3.76-2.7l3.08-5.08q.59-.91 1.4-1.4.81-.49 2.06-.49 1.24 0 2.35.71 1.1.7 2.56 1.51t3.43 1.51q1.97.7 4.99.7 2.38 0 4.08-.56 1.7-.57 2.81-1.49t1.62-2.13q.51-1.22.51-2.51 0-1.95-1.16-3.19t-3.08-2.16q-1.91-.92-4.37-1.65-2.46-.73-5.02-1.59-2.57-.86-5.02-2.03-2.46-1.16-4.38-2.94t-3.08-4.37q-1.16-2.59-1.16-6.27 0-3.4 1.35-6.48 1.35-3.07 3.97-5.37 2.62-2.29 6.54-3.67 3.91-1.38 9.04-1.38 5.72 0 10.42 1.89t7.83 4.97Zm23.98 49.41h-13.34v-55.4h8.15q2.6 0 3.41 2.43l.86 4.1q1.46-1.62 3.05-2.97 1.59-1.35 3.4-2.32 1.81-.97 3.89-1.54 2.08-.57 4.56-.57 5.24 0 8.62 2.84 3.37 2.83 5.05 7.53 1.29-2.75 3.24-4.73 1.94-1.97 4.26-3.21t4.94-1.83q2.62-.6 5.27-.6 4.59 0 8.15 1.41 3.57 1.4 6 4.1 2.43 2.7 3.7 6.59 1.26 3.89 1.26 8.91v35.26h-13.33v-35.26q0-5.29-2.33-7.97-2.32-2.67-6.8-2.67-2.05 0-3.81.7-1.75.7-3.07 2.03-1.33 1.32-2.08 3.32-.76 2-.76 4.59v35.26h-13.39v-35.26q0-5.56-2.24-8.1t-6.56-2.54q-2.92 0-5.43 1.43t-4.67 3.92v40.55Zm101.63-56.27q6.15 0 11.2 2 5.05 2 8.64 5.67 3.59 3.67 5.54 8.96 1.94 5.3 1.94 11.83 0 6.59-1.94 11.88-1.95 5.29-5.54 9.02-3.59 3.72-8.64 5.72-5.05 2-11.2 2-6.21 0-11.29-2-5.08-2-8.67-5.72-3.59-3.73-5.56-9.02-1.97-5.29-1.97-11.88 0-6.53 1.97-11.83 1.97-5.29 5.56-8.96 3.59-3.67 8.67-5.67t11.29-2Zm0 46.82q6.91 0 10.23-4.64 3.32-4.65 3.32-13.61 0-8.97-3.32-13.66-3.32-4.7-10.23-4.7-7.02 0-10.4 4.72-3.37 4.73-3.37 13.64t3.37 13.58q3.38 4.67 10.4 4.67Zm74.35-39.96-3.02 4.81q-.54.86-1.13 1.21-.6.35-1.52.35-.97 0-2.07-.54-1.11-.54-2.57-1.21-1.46-.68-3.32-1.22-1.86-.54-4.4-.54-3.94 0-6.18 1.68-2.25 1.67-2.25 4.37 0 1.78 1.17 3 1.16 1.21 3.07 2.13 1.92.92 4.35 1.65 2.43.73 4.94 1.59 2.51.86 4.94 1.97 2.43 1.11 4.35 2.81 1.92 1.7 3.08 4.08 1.16 2.37 1.16 5.72 0 4-1.43 7.37-1.43 3.38-4.24 5.83-2.81 2.46-6.94 3.84-4.13 1.37-9.53 1.37-2.86 0-5.59-.51t-5.24-1.43q-2.51-.92-4.64-2.16-2.14-1.24-3.76-2.7l3.08-5.08q.6-.91 1.41-1.4.81-.49 2.05-.49 1.24 0 2.35.71 1.1.7 2.56 1.51t3.43 1.51q1.97.7 5 .7 2.37 0 4.07-.56 1.7-.57 2.81-1.49t1.62-2.13q.51-1.22.51-2.51 0-1.95-1.16-3.19t-3.07-2.16q-1.92-.92-4.38-1.65-2.46-.73-5.02-1.59-2.57-.86-5.02-2.03-2.46-1.16-4.38-2.94-1.91-1.78-3.07-4.37-1.17-2.59-1.17-6.27 0-3.4 1.35-6.48 1.35-3.07 3.97-5.37 2.62-2.29 6.54-3.67 3.91-1.38 9.04-1.38 5.73 0 10.42 1.89 4.7 1.89 7.83 4.97Z"/></svg>